<?xml version="1.0" encoding="UTF-8" standalone="no"?>
<!-- Generator: Adobe Illustrator 16.0.4, SVG Export Plug-In . SVG Version: 6.00 Build 0)  -->

<svg
   xmlns:dc="http://purl.org/dc/elements/1.1/"
   xmlns:cc="http://creativecommons.org/ns#"
   xmlns:rdf="http://www.w3.org/1999/02/22-rdf-syntax-ns#"
   xmlns:svg="http://www.w3.org/2000/svg"
   xmlns="http://www.w3.org/2000/svg"
   xmlns:sodipodi="http://sodipodi.sourceforge.net/DTD/sodipodi-0.dtd"
   xmlns:inkscape="http://www.inkscape.org/namespaces/inkscape"
   version="1.1"
   id="Layer_1"
   x="0px"
   y="0px"
   width="379.992px"
   height="402.527px"
   viewBox="0 0 379.992 402.527"
   enable-background="new 0 0 379.992 402.527"
   xml:space="preserve"
   inkscape:version="0.48.4 r9939"
   sodipodi:docname="angular_logo.svg"
   inkscape:export-filename="/home/atila/projetos/comsolid-free-software/assets/angular_logo.png"
   inkscape:export-xdpi="47.369999"
   inkscape:export-ydpi="47.369999"><metadata
     id="metadata24"><rdf:RDF><cc:Work
         rdf:about=""><dc:format>image/svg+xml</dc:format><dc:type
           rdf:resource="http://purl.org/dc/dcmitype/StillImage" /><dc:title></dc:title></cc:Work></rdf:RDF></metadata><defs
     id="defs22" /><sodipodi:namedview
     pagecolor="#ffffff"
     bordercolor="#666666"
     borderopacity="1"
     objecttolerance="10"
     gridtolerance="10"
     guidetolerance="10"
     inkscape:pageopacity="0"
     inkscape:pageshadow="2"
     inkscape:window-width="640"
     inkscape:window-height="480"
     id="namedview20"
     showgrid="false"
     inkscape:zoom="0.58629606"
     inkscape:cx="189.996"
     inkscape:cy="201.2635"
     inkscape:window-x="0"
     inkscape:window-y="0"
     inkscape:window-maximized="0"
     inkscape:current-layer="Layer_1" /><g
     id="AngularJS_Logo"><g
       id="g4"><g
         id="g6"><g
           id="g8"><path
             fill="#B2B2B2"
             d="M189.396,0L0,66.648l29.927,248.125l159.66,87.754l160.486-88.938l29.919-248.119L189.396,0z"
             id="path10" /><path
             fill="#B52E31"
             d="M361.108,79.811L188.953,21.102v360.467l144.277-79.846L361.108,79.811z"
             id="path12" /><path
             fill="#E23237"
             d="M21.259,80.868l25.647,221.917l142.046,78.777V21.094L21.259,80.868z"
             id="path14" /><path
             fill="#F2F2F2"
             d="M228.86,200.394l-39.593-82.678l-34.854,82.677L228.86,200.394L228.86,200.394z M243.953,235.156      H139.012l-23.479,58.729l-43.67,0.807l117.091-260.5l121.179,260.494h-40.476L243.953,235.156z"
             id="path16" /><path
             fill="#B2B2B2"
             d="M188.953,34.193l0.313,83.523l39.549,82.741h-39.772l-0.09,34.647l54.997,0.053l25.707,59.539      l41.788,0.776L188.953,34.193z"
             id="path18" /></g></g></g></g></svg>